<svg xmlns="http://www.w3.org/2000/svg" viewBox="0 0 728 96" width="728" height="96">
  <g transform="scale(0.96)"><path fill="currentColor" fill-rule="evenodd" d="M0 0H100V100H0Z M 21.987 53.982 L 21.987 73 L 9.079 73 L 9.079 27 L 26.587 27 L 35.031 46.087 L 39.563 57.964 L 40.455 57.964 L 44.781 46.087 L 52.813 27 L 70.321 27 L 70.321 73 L 57.413 73 L 57.413 53.982 L 57.894 46.293 L 57.001 46.293 L 54.393 53.982 L 47.527 70.254 L 31.873 70.254 L 25.007 53.982 L 22.399 46.293 L 21.506 46.293 M75.321 57.4H90.921V73H75.321Z"/></g>
  <g transform="translate(113.3134,78) scale(0.895522)" fill="currentColor">
    <path d="M21.800-27.700L21.800 0L3 0L3-67L28.500-67L40.800-39.200L47.400-21.900L48.700-21.900L55-39.200L66.700-67L92.200-67L92.200 0L73.400 0L73.400-27.700L74.100-38.900L72.800-38.900L69-27.700L59-4L36.200-4L26.200-27.700L22.400-38.900L21.100-38.900 M118.500-12.400L113.300 0L92.200 0L121.100-67L148-67L177 0L155.400 0L150.300-12.400L118.500-12.400M133.800-50L129.500-38.700L125.600-29.300L143.400-29.300L139.500-38.700L135.100-50 M195.800-22.800L195.800 0L177 0L177-67L216.100-67Q229.300-67 236.200-61.700Q243.100-56.400 243.100-46.500Q243.100-38.400 238.750-33.800Q234.400-29.200 225-28L225-27Q229.800-25.800 232.150-23.500Q234.500-21.200 236.600-16.800L244.900 0L223.200 0L215.200-16.400Q213.400-20.200 211.150-21.500Q208.900-22.800 203.500-22.800L195.800-22.800M215.900-50.100L195.800-50.100L195.800-36.800L215.900-36.800Q220.200-36.800 221.800-38.100Q223.400-39.400 223.400-43.500Q223.400-47.400 221.750-48.750Q220.100-50.100 215.900-50.100 M322.700-67L295.800 0L268.800 0L241.900-67L264.600-67L281.900-19L283.200-19L300.100-67 M341.500-67L341.500 0L322.700 0L322.700-67 M364.300-26.200L364.300 0L345.500 0L345.500-67L365.500-67L384.100-41.900L393.900-26.500L395.200-26.500L394.300-41.100L394.300-67L413.100-67L413.100 0L393.100 0L373.300-25.800L364.800-39L363.500-39 M 493.300 -28.700 L 485.300 0 L 457.400 0 L 443.400 -67 L 464.400 -67 L 470.3 -32.900 L 471.800 -17.800 L 473.100 -17.800 L 475.800 -32.900 L 484.800 -67 L 513.100 -67 L 521.300 -32.900 L 523.700 -17.800 L 525 -17.800 L 527 -32.900 L 533.300 -67 L 553.900 -67 L 538.600 0 L 510.700 0 L 503.700 -28.700 L 499.300 -49.700 L 498 -49.700 M615.300-16.900L615.300 0L555.800 0L555.800-67L615.300-67L615.300-50.100L574.600-50.100L574.600-42.100L613.800-42.100L613.800-25.300L574.600-25.300L574.600-16.900 M663.500 0L618.600 0L618.600-67L661.200-67Q682.900-67 682.900-50.800Q682.900-36.300 666.200-35.600L666.200-34.600Q676-34.200 681-30Q686-25.800 686-18.600Q686 0 663.500 0M658.700-50.100L637.300-50.100L637.300-41.600L659.200-41.600Q662-41.600 663.050-42.500Q664.100-43.400 664.100-45.800Q664.100-48.100 662.850-49.100Q661.600-50.100 658.700-50.100M661.100-26.200L637.300-26.200L637.300-16.900L661.100-16.900Q664.500-16.900 665.750-17.850Q667-18.800 667-21.600Q667-24.400 665.800-25.300Q664.600-26.200 661.100-26.200"/><rect x="417.8" y="-23" width="23" height="23"/>
  </g>
</svg>
