<svg viewBox="4.4 -69.3 779.0 90.3" xmlns="http://www.w3.org/2000/svg">
<g fill="#FAF9F5"><path d="M19.700-25.100L19.700 0L5.400 0L5.400-67L36.500-67Q47.900-67 54.750-61.700Q61.600-56.400 61.600-46.100Q61.600-37.500 56.400-32.650Q51.200-27.800 42.600-26.800Q46.300-25.800 48.750-23.550Q51.200-21.300 53.600-17.400L64.200 0L47.700 0L36.400-19Q34.400-22.400 31.850-23.750Q29.300-25.100 24.900-25.100L19.700-25.100M36-54.300L19.700-54.300L19.700-36.600L36-36.600Q46.600-36.600 46.600-45.400Q46.600-54.300 36-54.300"/><path d="M196.800 1Q182.600 1 175.600-6.400Q168.600-13.800 168.600-29.400L168.600-67L182.900-67L182.900-29.200Q182.900-20.600 186.250-16.700Q189.600-12.800 196.900-12.800Q204.300-12.800 207.550-16.650Q210.800-20.500 210.800-29.200L210.800-67L225.100-67L225.100-29.400Q225.100-13.700 218.150-6.350Q211.200 1 196.800 1"/><path d="M277.600-54.300L277.600 0L263.300 0L263.300-54.300L243.300-54.300L243.300-67L297.600-67L297.600-54.300"/><path d="M365.600-12.700L365.600 0L316.400 0L316.400-67L365.600-67L365.600-54.300L330.700-54.300L330.700-40.200L359.900-40.200L359.900-27.500L330.700-27.500L330.700-12.700"/><path d="M400.700-28.600L400.700 0L386.400 0L386.400-67L400.300-67L424.100-32L430.200-21.500L429.300-37.300L429.300-67L443.600-67L443.600 0L430 0L405.600-35.300L399.600-45.200"/></g>
<g fill="#C2331F"><circle cx="114.7" cy="-33.5" r="34.7"/><path d="M114.7 20 86.2 -16.2h56.9z"/><path d="M506.100-35.100L497.400 0L478.100 0L462-67L478.500-67L485.600-30.400L488.100-10.100L491.600-28.800L500.300-67L519.200-67L527.800-28.800L531.200-10.100L533.800-30.400L541-67L557.400-67L541.200 0L521.900 0L513.300-35.100L509.700-56.800"/><path d="M625-12.700L625 0L575.800 0L575.800-67L625-67L625-54.300L590.100-54.300L590.100-40.200L619.300-40.200L619.300-27.500L590.100-27.500L590.100-12.700"/><path d="M660.100-25.100L660.100 0L645.800 0L645.800-67L676.900-67Q688.300-67 695.150-61.700Q702-56.400 702-46.100Q702-37.500 696.800-32.650Q691.600-27.800 683-26.800Q686.700-25.800 689.150-23.550Q691.600-21.300 694-17.400L704.600 0L688.100 0L676.800-19Q674.800-22.400 672.250-23.750Q669.700-25.100 665.300-25.100L660.100-25.100M676.400-54.300L660.100-54.300L660.100-36.600L676.400-36.600Q687-36.600 687-45.400Q687-54.300 676.400-54.300"/><path d="M737.600-18.800L737.600 0L723.300 0L723.300-67L737.600-67L737.600-48L737.200-35.400L746.500-46.800L764.600-67L781.400-67L758.100-40.500L782.400 0L765.900 0L748-30.100"/></g>
</svg>