<svg viewBox="0 0 96 96" xmlns="http://www.w3.org/2000/svg" role="img" aria-label="Routenwerk Split-Flap-Kachel: R als Abflugtafel-Baustein">
<rect x="4" y="4" width="88" height="88" rx="10" fill="#211C15"/>
<g transform="translate(20.99,74.00) scale(0.7761)">
<path d="M19.700-25.100L19.700 0L5.400 0L5.400-67L36.500-67Q47.900-67 54.750-61.700Q61.600-56.400 61.600-46.100Q61.600-37.500 56.400-32.650Q51.200-27.800 42.600-26.800Q46.300-25.800 48.750-23.550Q51.200-21.300 53.600-17.400L64.200 0L47.700 0L36.400-19Q34.400-22.400 31.850-23.750Q29.300-25.100 24.900-25.100L19.700-25.100M36-54.300L19.700-54.300L19.700-36.600L36-36.600Q46.600-36.600 46.600-45.400Q46.600-54.300 36-54.300" fill="#FFFFFF"/>
</g>
<line x1="10" y1="48" x2="86" y2="48" stroke="#FFFFFF" stroke-opacity=".28" stroke-width="2.5"/>
</svg>
